<?xml version="1.0" encoding="UTF-8"?>
<svg xmlns="http://www.w3.org/2000/svg" xmlns:xlink="http://www.w3.org/1999/xlink" width="2001" height="2001" viewBox="0 0 2001 2001">

<path fill-rule="evenodd" fill="rgb(38.035583%, 23.143005%, 11.767578%)" fill-opacity="1" d="M 357.789062 551.378906 L 1602.101562 548.21875 L 1758.109375 1426.976562 L 1058.03125 1432.144531 L 1041.648438 1453.871094 L 956.449219 1454.5 L 935.039062 1433.214844 L 226.113281 1439.394531 L 357.789062 551.378906 "/>
<path fill-rule="evenodd" fill="rgb(27.050781%, 14.892578%, 5.880737%)" fill-opacity="1" d="M 936.613281 548.171875 L 1063.609375 548.171875 L 1063.609375 1466.496094 L 1062.621094 1466.503906 L 1045.710938 1489.074219 L 957.726562 1489.730469 L 936.613281 1468.609375 L 936.613281 548.171875 "/>
<path fill-rule="evenodd" fill="rgb(59.959412%, 52.539062%, 36.083984%)" fill-opacity="1" d="M 994 1423.5 L 981.335938 459.628906 C 1211.019531 382 1296.5 660.5 1592.140625 493.421875 L 1739.621094 1417.65625 C 1569.621094 1628.652344 1330.761719 1300.703125 994 1423.5 "/>
<path fill-rule="evenodd" fill="rgb(80.076599%, 70.896912%, 52.146912%)" fill-opacity="1" d="M 1014.738281 1401.320312 L 970.488281 459.820312 C 1201.710938 382.28125 1302.5 648.5 1596.140625 493.371094 L 1727.410156 1411.15625 C 1538.921875 1607.65625 1322.511719 1248.15625 1014.738281 1401.320312 "/>
<path fill-rule="evenodd" fill="rgb(87.889099%, 78.90625%, 58.789062%)" fill-opacity="1" d="M 1173.078125 1362.261719 C 1142.078125 1362.566406 1110.089844 1366.894531 1077 1376.707031 C 1116.011719 1363.796875 1158.878906 1359.140625 1203.960938 1360.964844 C 1287.03125 1364.324219 1377.601562 1389.671875 1465.328125 1425.820312 C 1627.511719 1492.636719 1706.179688 1426.3125 1706.421875 1426.121094 L 1718.121094 1416.664062 L 1719.128906 1417.835938 L 1707.429688 1427.292969 C 1707.078125 1427.578125 1627.730469 1494.324219 1464.800781 1427.199219 C 1377.21875 1391.113281 1286.828125 1365.808594 1203.980469 1362.457031 C 1193.550781 1362.035156 1183.238281 1361.964844 1173.078125 1362.261719 "/>
<path fill-rule="evenodd" fill="rgb(59.959412%, 52.539062%, 36.083984%)" fill-opacity="1" d="M 1092.058594 1372.59375 C 1084.070312 1374.589844 1076.019531 1376.882812 1067.890625 1379.527344 C 1109.730469 1362.476562 1156.589844 1356.125 1206.199219 1357.949219 C 1287.511719 1360.941406 1376.171875 1385.894531 1462.058594 1421.65625 C 1620.839844 1487.765625 1697.789062 1421.082031 1698.019531 1420.890625 L 1709.46875 1411.378906 L 1710.449219 1412.546875 L 1699.011719 1422.058594 C 1698.671875 1422.34375 1621.050781 1489.449219 1461.550781 1423.039062 C 1375.800781 1387.335938 1287.320312 1362.429688 1206.21875 1359.441406 C 1165.929688 1357.960938 1127.46875 1361.890625 1092.058594 1372.59375 "/>
<path fill-rule="evenodd" fill="rgb(59.959412%, 52.539062%, 36.083984%)" fill-opacity="1" d="M 1033.730469 1392.53125 C 1029.910156 1394.195312 1026.070312 1395.949219 1022.21875 1397.773438 C 1073.171875 1364.8125 1134.429688 1352.304688 1200.550781 1354.304688 C 1281.839844 1356.761719 1370.488281 1381.132812 1456.359375 1416.335938 C 1615.101562 1481.410156 1692.039062 1414.203125 1692.261719 1414.007812 L 1703.710938 1404.421875 L 1704.699219 1405.585938 L 1693.25 1415.171875 C 1692.910156 1415.460938 1615.320312 1483.09375 1455.839844 1417.71875 C 1370.121094 1382.574219 1281.648438 1358.246094 1200.570312 1355.796875 C 1139.289062 1353.945312 1082.210938 1364.597656 1033.730469 1392.53125 "/>
<path fill-rule="evenodd" fill="rgb(59.959412%, 52.539062%, 36.083984%)" fill-opacity="1" d="M 1014.738281 1401.320312 L 1014.710938 1400.414062 C 1067.070312 1363.277344 1131.070312 1348.898438 1200.429688 1350.445312 C 1281.691406 1352.257812 1370.308594 1375.929688 1456.171875 1410.460938 C 1614.871094 1474.289062 1691.78125 1406.453125 1692.011719 1406.257812 L 1703.449219 1396.578125 L 1704.441406 1397.730469 L 1693 1407.410156 C 1692.660156 1407.703125 1615.078125 1475.972656 1455.648438 1411.847656 C 1369.941406 1377.378906 1281.5 1353.746094 1200.449219 1351.9375 C 1132.839844 1350.433594 1070.371094 1364.113281 1018.898438 1399.347656 C 1017.511719 1400.019531 1016.128906 1400.628906 1014.738281 1401.320312 "/>
<path fill-rule="evenodd" fill="rgb(72.068787%, 63.867188%, 45.483398%)" fill-opacity="1" d="M 1565.988281 499.839844 C 1568.640625 499.199219 1587.890625 495.46875 1590.570312 494.78125 C 1593.738281 494.558594 1596.140625 493.371094 1596.140625 493.371094 L 1727.410156 1411.152344 C 1674.390625 1443.140625 1658.949219 1412.601562 1658.109375 1400.5 C 1635.378906 1072.492188 1576.710938 797.75 1565.988281 499.839844 "/>
<path fill-rule="evenodd" fill="rgb(59.959412%, 52.539062%, 36.083984%)" fill-opacity="1" d="M 1014.101562 1408.265625 L 1014.070312 1407.355469 C 1067.621094 1371.246094 1133.058594 1358.097656 1203.960938 1360.964844 C 1287.03125 1364.324219 1377.601562 1389.671875 1465.328125 1425.820312 C 1627.511719 1492.636719 1706.179688 1426.3125 1706.421875 1426.121094 L 1718.121094 1416.664062 L 1719.128906 1417.835938 L 1707.429688 1427.292969 C 1707.078125 1427.578125 1627.730469 1494.324219 1464.800781 1427.199219 C 1377.21875 1391.113281 1286.828125 1365.808594 1203.980469 1362.457031 C 1134.871094 1359.660156 1071 1372.140625 1018.359375 1406.371094 C 1016.941406 1407.019531 1015.53125 1407.597656 1014.101562 1408.265625 "/>
<path fill-rule="evenodd" fill="rgb(98.826599%, 89.451599%, 68.943787%)" fill-opacity="1" d="M 1014.28125 1396.363281 L 983.535156 460.640625 C 1300.109375 377 1243.109375 592 1475.730469 531.609375 L 1613.890625 1400.675781 C 1544.109375 1532 1290.929688 1213.671875 1014.28125 1396.363281 "/>
<path fill-rule="evenodd" fill="rgb(87.889099%, 78.90625%, 58.789062%)" fill-opacity="1" d="M 1614.289062 1402.308594 C 1608.710938 1368.082031 1589.609375 1314.5 1528.5 1323.160156 L 1334.101562 524.589844 C 1405.109375 501.878906 1467.109375 478 1475.730469 531.609375 L 1614.289062 1402.308594 "/>
<path fill-rule="evenodd" fill="rgb(59.959412%, 52.539062%, 36.083984%)" fill-opacity="1" d="M 994 1423.5 L 978.722656 462.480469 C 746.460938 384.859375 669.566406 574.230469 371.203125 495.269531 L 254.355469 1419.5 C 430.738281 1629.765625 642.027344 1301.855469 980.78125 1421.09375 C 981.964844 1421.507812 992.816406 1423.070312 994 1423.5 "/>
<path fill-rule="evenodd" fill="rgb(87.889099%, 78.90625%, 58.789062%)" fill-opacity="1" d="M 978.699219 1403.167969 L 978.722656 462.46875 C 744.929688 384.921875 667.527344 574.101562 367.195312 495.210938 L 266.355469 1413 C 461.355469 1609.5 665.855469 1250 978.699219 1403.167969 "/>
<path fill-rule="evenodd" fill="rgb(87.889099%, 78.90625%, 58.789062%)" fill-opacity="1" d="M 819.066406 1364.105469 C 850.070312 1364.410156 882.210938 1368.738281 915.621094 1378.554688 C 876.183594 1365.640625 833.160156 1360.984375 788.144531 1362.808594 C 705.183594 1366.171875 615.453125 1391.519531 528.914062 1427.664062 C 368.953125 1494.480469 288.082031 1428.15625 287.84375 1427.964844 L 275.824219 1418.511719 L 274.855469 1419.683594 L 286.871094 1429.136719 C 287.226562 1429.421875 368.789062 1496.167969 529.488281 1429.042969 C 615.878906 1392.960938 705.429688 1367.65625 788.171875 1364.304688 C 798.585938 1363.882812 808.890625 1363.808594 819.066406 1364.105469 "/>
<path fill-rule="evenodd" fill="rgb(59.959412%, 52.539062%, 36.083984%)" fill-opacity="1" d="M 900.421875 1374.441406 C 908.480469 1376.433594 916.609375 1378.726562 924.820312 1381.371094 C 882.421875 1364.320312 835.347656 1357.96875 785.800781 1359.796875 C 704.59375 1362.785156 616.757812 1387.738281 532.046875 1423.503906 C 375.464844 1489.609375 296.300781 1422.929688 296.066406 1422.734375 L 284.304688 1413.226562 L 283.355469 1414.394531 L 295.117188 1423.902344 C 295.464844 1424.191406 375.304688 1491.296875 532.609375 1424.882812 C 617.175781 1389.179688 704.832031 1364.273438 785.828125 1361.289062 C 826.066406 1359.804688 864.660156 1363.738281 900.421875 1374.441406 "/>
<path fill-rule="evenodd" fill="rgb(59.959412%, 52.539062%, 36.083984%)" fill-opacity="1" d="M 959.417969 1394.378906 C 963.292969 1396.042969 967.1875 1397.796875 971.09375 1399.617188 C 919.054688 1366.65625 857.382812 1354.152344 791.324219 1356.148438 C 710.117188 1358.605469 622.28125 1382.976562 537.574219 1418.179688 C 380.988281 1483.253906 301.828125 1416.050781 301.59375 1415.855469 L 289.828125 1406.269531 L 288.878906 1407.429688 L 300.644531 1417.015625 C 300.992188 1417.304688 380.832031 1484.9375 538.136719 1419.566406 C 622.699219 1384.421875 710.355469 1360.09375 791.355469 1357.640625 C 852.582031 1355.789062 910.007812 1366.445312 959.417969 1394.378906 "/>
<path fill-rule="evenodd" fill="rgb(59.959412%, 52.539062%, 36.083984%)" fill-opacity="1" d="M 978.699219 1403.167969 L 978.699219 1402.257812 C 925.109375 1365.125 860.632812 1350.746094 791.324219 1352.289062 C 710.117188 1354.101562 622.28125 1377.773438 537.574219 1412.304688 C 380.988281 1476.136719 301.828125 1408.300781 301.59375 1408.105469 L 289.828125 1398.421875 L 288.878906 1399.578125 L 300.644531 1409.257812 C 300.992188 1409.550781 380.832031 1477.816406 538.136719 1413.695312 C 622.699219 1379.222656 710.355469 1355.589844 791.355469 1353.785156 C 858.90625 1352.277344 921.832031 1365.957031 974.46875 1401.191406 C 975.882812 1401.867188 977.28125 1402.472656 978.699219 1403.167969 "/>
<path fill-rule="evenodd" fill="rgb(76.171875%, 66.992188%, 47.851562%)" fill-opacity="1" d="M 380.914062 498.671875 C 378.246094 498.019531 375.519531 497.308594 372.816406 496.628906 C 369.644531 496.410156 367.195312 495.210938 367.195312 495.210938 L 266.355469 1413 C 310.855469 1426 300.042969 1401.683594 300.042969 1401.683594 L 317.855469 1392 C 317.855469 1392 380.730469 564.050781 380.914062 498.671875 "/>
<path fill-rule="evenodd" fill="rgb(59.959412%, 52.539062%, 36.083984%)" fill-opacity="1" d="M 979.5625 1410.113281 L 979.5625 1409.203125 C 924.816406 1373.089844 858.945312 1359.941406 788.144531 1362.808594 C 705.183594 1366.171875 615.453125 1391.519531 528.914062 1427.664062 C 368.953125 1494.484375 288.082031 1428.15625 287.84375 1427.964844 L 275.824219 1418.511719 L 274.855469 1419.683594 L 286.871094 1429.136719 C 287.226562 1429.421875 368.789062 1496.167969 529.488281 1429.042969 C 615.878906 1392.960938 705.429688 1367.65625 788.171875 1364.304688 C 857.183594 1361.507812 921.46875 1373.988281 975.242188 1408.21875 C 976.683594 1408.863281 978.113281 1409.445312 979.5625 1410.113281 "/>
<path fill-rule="evenodd" fill="rgb(98.826599%, 89.451599%, 68.943787%)" fill-opacity="1" d="M 978.457031 1403.167969 L 978.480469 462.191406 C 749.804688 385.769531 674.097656 572.210938 380.339844 494.460938 L 299.800781 1401.683594 C 508.09375 1520.308594 684.34375 1235.289062 978.457031 1403.167969 "/>
<path fill-rule="evenodd" fill="rgb(76.951599%, 16.088867%, 5.488586%)" fill-opacity="1" d="M 885.210938 1371.886719 L 946.113281 1392.226562 C 946.113281 1485.652344 886.113281 1541 946.113281 1672.5 L 895.613281 1604 L 885.210938 1672.5 C 825.113281 1488.5 885.210938 1472.09375 885.210938 1371.886719 "/>
</svg>
