<!-- icon666.com - MILLIONS OF FREE VECTOR ICONS --><svg id="svg8" viewBox="0 0 30 30" xmlns="http://www.w3.org/2000/svg" xmlns:xlink="http://www.w3.org/1999/xlink" xmlns:svg="http://www.w3.org/2000/svg"><linearGradient id="linearGradient140476" gradientUnits="userSpaceOnUse" x1="2.05" x2="30" y1="2.05" y2="30"><stop id="stop139879" offset="0" stop-color="#f0f"></stop><stop id="stop139881" offset="1" stop-color="#000080"></stop></linearGradient><g id="layer2" transform="translate(159 -1)"><g id="g21511" fill="url(#linearGradient140476)" stroke-linecap="round" transform="translate(-160)"><path id="circle19227" d="m16 1c-8.2724183 0-15 6.7275817-15 15 0 8.272418 6.7275817 15 15 15 8.272418 0 15-6.727582 15-15 0-8.2724183-6.727582-15-15-15zm0 2c7.191539 0 13 5.8084608 13 13 0 7.191539-5.808461 13-13 13-7.1915392 0-13-5.808461-13-13 0-7.1915392 5.8084608-13 13-13z" stroke-linejoin="round"></path><path id="path19229" d="m9.2929688 9.2929688c-.3904234.390507-.3904234 1.0235552 0 1.4140622l5.2929692 5.292969-5.2929692 5.292969c-.3904233.390507-.3904233 1.023555 0 1.414062.390507.390423 1.0235552.390423 1.4140622 0l5.292969-5.292969 5.292969 5.292969c.390507.390423 1.023555.390423 1.414062 0 .390423-.390507.390423-1.023555 0-1.414062l-5.292969-5.292969 5.292969-5.292969c.390423-.390507.390423-1.0235552 0-1.4140622-.390507-.3904233-1.023555-.3904233-1.414062 0l-5.292969 5.2929692-5.292969-5.2929692c-.426563-.4283227-1.0175506-.3392949-1.4140622 0z"></path></g></g></svg>